<mxfile host="app.diagrams.net" modified="2021-07-05T12:01:59.090Z" agent="5.0 (Windows NT 10.0; Win64; x64) AppleWebKit/537.36 (KHTML, like Gecko) Chrome/91.0.4472.124 Safari/537.36" etag="-kryd6w5xeiYNbIpas0f" version="14.8.4" type="github">
  <diagram id="a2KCXQW5y_hcNaTkDCUP" name="Page-1">
    <mxGraphModel dx="2413" dy="1982" grid="1" gridSize="10" guides="1" tooltips="1" connect="1" arrows="1" fold="1" page="1" pageScale="1" pageWidth="827" pageHeight="1169" math="0" shadow="0">
      <root>
        <mxCell id="0" />
        <mxCell id="1" parent="0" />
        <mxCell id="QND-4vZ9Ax7OfqVobVI6-7" value="AWS Cloud" style="points=[[0,0],[0.25,0],[0.5,0],[0.75,0],[1,0],[1,0.25],[1,0.5],[1,0.75],[1,1],[0.75,1],[0.5,1],[0.25,1],[0,1],[0,0.75],[0,0.5],[0,0.25]];outlineConnect=0;gradientColor=none;html=1;whiteSpace=wrap;fontSize=12;fontStyle=0;shape=mxgraph.aws4.group;grIcon=mxgraph.aws4.group_aws_cloud_alt;strokeColor=#232F3E;fillColor=none;verticalAlign=top;align=left;spacingLeft=30;fontColor=#232F3E;dashed=0;pointerEvents=1;" vertex="1" parent="1">
          <mxGeometry x="-80" y="-210" width="1240" height="1310" as="geometry" />
        </mxCell>
        <mxCell id="AJSDm180iAo4wDnun82W-43" value="ap-southeast-2" style="points=[[0,0],[0.25,0],[0.5,0],[0.75,0],[1,0],[1,0.25],[1,0.5],[1,0.75],[1,1],[0.75,1],[0.5,1],[0.25,1],[0,1],[0,0.75],[0,0.5],[0,0.25]];outlineConnect=0;gradientColor=none;html=1;whiteSpace=wrap;fontSize=12;fontStyle=0;shape=mxgraph.aws4.group;grIcon=mxgraph.aws4.group_region;strokeColor=#147EBA;fillColor=none;verticalAlign=top;align=left;spacingLeft=30;fontColor=#147EBA;dashed=1;pointerEvents=1;" parent="1" vertex="1">
          <mxGeometry x="-60" y="-170" width="1200" height="1250" as="geometry" />
        </mxCell>
        <mxCell id="AJSDm180iAo4wDnun82W-41" value="VPC" style="points=[[0,0],[0.25,0],[0.5,0],[0.75,0],[1,0],[1,0.25],[1,0.5],[1,0.75],[1,1],[0.75,1],[0.5,1],[0.25,1],[0,1],[0,0.75],[0,0.5],[0,0.25]];outlineConnect=0;gradientColor=none;html=1;whiteSpace=wrap;fontSize=12;fontStyle=0;shape=mxgraph.aws4.group;grIcon=mxgraph.aws4.group_vpc;strokeColor=#248814;fillColor=none;verticalAlign=top;align=left;spacingLeft=30;fontColor=#AAB7B8;dashed=0;pointerEvents=1;" parent="1" vertex="1">
          <mxGeometry x="-40" y="-120" width="1070" height="1180" as="geometry" />
        </mxCell>
        <mxCell id="AJSDm180iAo4wDnun82W-2" value="Availability Zone - A" style="fillColor=none;strokeColor=#147EBA;dashed=1;verticalAlign=top;fontStyle=0;fontColor=#147EBA;" parent="1" vertex="1">
          <mxGeometry x="40" y="-40" width="360" height="1080" as="geometry" />
        </mxCell>
        <mxCell id="AJSDm180iAo4wDnun82W-3" value="Availability Zone -B" style="fillColor=none;strokeColor=#147EBA;dashed=1;verticalAlign=top;fontStyle=0;fontColor=#147EBA;" parent="1" vertex="1">
          <mxGeometry x="600" y="-40" width="360" height="1080" as="geometry" />
        </mxCell>
        <mxCell id="AJSDm180iAo4wDnun82W-4" value="Private subnet" style="points=[[0,0],[0.25,0],[0.5,0],[0.75,0],[1,0],[1,0.25],[1,0.5],[1,0.75],[1,1],[0.75,1],[0.5,1],[0.25,1],[0,1],[0,0.75],[0,0.5],[0,0.25]];outlineConnect=0;gradientColor=none;html=1;whiteSpace=wrap;fontSize=12;fontStyle=0;shape=mxgraph.aws4.group;grIcon=mxgraph.aws4.group_security_group;grStroke=0;strokeColor=#147EBA;fillColor=#E6F2F8;verticalAlign=top;align=left;spacingLeft=30;fontColor=#147EBA;dashed=0;" parent="1" vertex="1">
          <mxGeometry x="60" y="520" width="320" height="500" as="geometry" />
        </mxCell>
        <mxCell id="AJSDm180iAo4wDnun82W-5" value="Public subnet" style="points=[[0,0],[0.25,0],[0.5,0],[0.75,0],[1,0],[1,0.25],[1,0.5],[1,0.75],[1,1],[0.75,1],[0.5,1],[0.25,1],[0,1],[0,0.75],[0,0.5],[0,0.25]];outlineConnect=0;gradientColor=none;html=1;whiteSpace=wrap;fontSize=12;fontStyle=0;shape=mxgraph.aws4.group;grIcon=mxgraph.aws4.group_security_group;grStroke=0;strokeColor=#248814;fillColor=#E9F3E6;verticalAlign=top;align=left;spacingLeft=30;fontColor=#248814;dashed=0;" parent="1" vertex="1">
          <mxGeometry x="60" width="320" height="480" as="geometry" />
        </mxCell>
        <mxCell id="AJSDm180iAo4wDnun82W-6" value="Public subnet" style="points=[[0,0],[0.25,0],[0.5,0],[0.75,0],[1,0],[1,0.25],[1,0.5],[1,0.75],[1,1],[0.75,1],[0.5,1],[0.25,1],[0,1],[0,0.75],[0,0.5],[0,0.25]];outlineConnect=0;gradientColor=none;html=1;whiteSpace=wrap;fontSize=12;fontStyle=0;shape=mxgraph.aws4.group;grIcon=mxgraph.aws4.group_security_group;grStroke=0;strokeColor=#248814;fillColor=#E9F3E6;verticalAlign=top;align=left;spacingLeft=30;fontColor=#248814;dashed=0;" parent="1" vertex="1">
          <mxGeometry x="620" width="320" height="480" as="geometry" />
        </mxCell>
        <mxCell id="AJSDm180iAo4wDnun82W-7" value="Private subnet" style="points=[[0,0],[0.25,0],[0.5,0],[0.75,0],[1,0],[1,0.25],[1,0.5],[1,0.75],[1,1],[0.75,1],[0.5,1],[0.25,1],[0,1],[0,0.75],[0,0.5],[0,0.25]];outlineConnect=0;gradientColor=none;html=1;whiteSpace=wrap;fontSize=12;fontStyle=0;shape=mxgraph.aws4.group;grIcon=mxgraph.aws4.group_security_group;grStroke=0;strokeColor=#147EBA;fillColor=#E6F2F8;verticalAlign=top;align=left;spacingLeft=30;fontColor=#147EBA;dashed=0;" parent="1" vertex="1">
          <mxGeometry x="620" y="520" width="320" height="500" as="geometry" />
        </mxCell>
        <mxCell id="AJSDm180iAo4wDnun82W-8" value="&lt;span style=&quot;white-space: pre&quot;&gt;	&lt;/span&gt;" style="outlineConnect=0;fontColor=#232F3E;gradientColor=none;fillColor=#3334B9;strokeColor=none;dashed=0;verticalLabelPosition=bottom;verticalAlign=top;align=center;html=1;fontSize=12;fontStyle=0;aspect=fixed;pointerEvents=1;shape=mxgraph.aws4.rds_postgresql_instance;" parent="1" vertex="1">
          <mxGeometry x="280" y="880" width="78" height="78" as="geometry" />
        </mxCell>
        <mxCell id="AJSDm180iAo4wDnun82W-9" value="" style="outlineConnect=0;fontColor=#232F3E;gradientColor=none;fillColor=#3334B9;strokeColor=none;dashed=0;verticalLabelPosition=bottom;verticalAlign=top;align=center;html=1;fontSize=12;fontStyle=0;aspect=fixed;pointerEvents=1;shape=mxgraph.aws4.rds_postgresql_instance;" parent="1" vertex="1">
          <mxGeometry x="640" y="880" width="78" height="78" as="geometry" />
        </mxCell>
        <mxCell id="AJSDm180iAo4wDnun82W-12" value="&lt;b&gt;Auto Scaling group&lt;/b&gt;" style="points=[[0,0],[0.25,0],[0.5,0],[0.75,0],[1,0],[1,0.25],[1,0.5],[1,0.75],[1,1],[0.75,1],[0.5,1],[0.25,1],[0,1],[0,0.75],[0,0.5],[0,0.25]];outlineConnect=0;gradientColor=none;html=1;whiteSpace=wrap;fontSize=12;fontStyle=0;shape=mxgraph.aws4.groupCenter;grIcon=mxgraph.aws4.group_auto_scaling_group;grStroke=1;strokeColor=#D86613;fillColor=none;verticalAlign=top;align=center;fontColor=#D86613;dashed=1;spacingTop=25;pointerEvents=1;" parent="1" vertex="1">
          <mxGeometry x="241" y="590" width="550" height="150" as="geometry" />
        </mxCell>
        <mxCell id="AJSDm180iAo4wDnun82W-16" value="" style="points=[[0,0,0],[0.25,0,0],[0.5,0,0],[0.75,0,0],[1,0,0],[0,1,0],[0.25,1,0],[0.5,1,0],[0.75,1,0],[1,1,0],[0,0.25,0],[0,0.5,0],[0,0.75,0],[1,0.25,0],[1,0.5,0],[1,0.75,0]];outlineConnect=0;fontColor=#232F3E;gradientColor=#F78E04;gradientDirection=north;fillColor=#D05C17;strokeColor=#ffffff;dashed=0;verticalLabelPosition=bottom;verticalAlign=top;align=center;html=1;fontSize=12;fontStyle=0;aspect=fixed;shape=mxgraph.aws4.resourceIcon;resIcon=mxgraph.aws4.elastic_load_balancing;pointerEvents=1;" parent="1" vertex="1">
          <mxGeometry x="470" y="360" width="60" height="60" as="geometry" />
        </mxCell>
        <mxCell id="AJSDm180iAo4wDnun82W-21" value="&lt;blockquote style=&quot;margin: 0 0 0 40px ; border: none ; padding: 0px&quot;&gt;&lt;blockquote style=&quot;margin: 0 0 0 40px ; border: none ; padding: 0px&quot;&gt;&lt;blockquote style=&quot;margin: 0 0 0 40px ; border: none ; padding: 0px&quot;&gt;&lt;blockquote style=&quot;margin: 0 0 0 40px ; border: none ; padding: 0px&quot;&gt;&lt;blockquote style=&quot;margin: 0 0 0 40px ; border: none ; padding: 0px&quot;&gt;&lt;blockquote style=&quot;margin: 0 0 0 40px ; border: none ; padding: 0px&quot;&gt;&lt;blockquote style=&quot;margin: 0 0 0 40px ; border: none ; padding: 0px&quot;&gt;&lt;blockquote style=&quot;margin: 0 0 0 40px ; border: none ; padding: 0px&quot;&gt;&lt;blockquote style=&quot;margin: 0 0 0 40px ; border: none ; padding: 0px&quot;&gt;ALB Security group&lt;/blockquote&gt;&lt;/blockquote&gt;&lt;/blockquote&gt;&lt;/blockquote&gt;&lt;/blockquote&gt;&lt;/blockquote&gt;&lt;/blockquote&gt;&lt;/blockquote&gt;&lt;/blockquote&gt;" style="fillColor=none;strokeColor=#DD3522;verticalAlign=top;fontStyle=0;fontColor=#DD3522;dashed=0;pointerEvents=1;html=1;" parent="1" vertex="1">
          <mxGeometry x="210" y="290" width="610" height="170" as="geometry" />
        </mxCell>
        <mxCell id="AJSDm180iAo4wDnun82W-22" value="&lt;b&gt;ALB&lt;/b&gt;" style="fillColor=none;strokeColor=#5A6C86;dashed=1;verticalAlign=top;fontStyle=0;fontColor=#5A6C86;pointerEvents=1;html=1;" parent="1" vertex="1">
          <mxGeometry x="240" y="320" width="550" height="120" as="geometry" />
        </mxCell>
        <mxCell id="AJSDm180iAo4wDnun82W-24" value="&lt;b&gt;Bastion Host&lt;/b&gt;" style="points=[[0,0,0],[0.25,0,0],[0.5,0,0],[0.75,0,0],[1,0,0],[0,1,0],[0.25,1,0],[0.5,1,0],[0.75,1,0],[1,1,0],[0,0.25,0],[0,0.5,0],[0,0.75,0],[1,0.25,0],[1,0.5,0],[1,0.75,0]];outlineConnect=0;fontColor=#232F3E;gradientColor=#F78E04;gradientDirection=north;fillColor=#D05C17;strokeColor=#ffffff;dashed=0;verticalLabelPosition=bottom;verticalAlign=top;align=center;html=1;fontSize=12;fontStyle=0;aspect=fixed;shape=mxgraph.aws4.resourceIcon;resIcon=mxgraph.aws4.compute;pointerEvents=1;" parent="1" vertex="1">
          <mxGeometry x="259" y="160" width="58" height="58" as="geometry" />
        </mxCell>
        <mxCell id="AJSDm180iAo4wDnun82W-27" value="&lt;b&gt;NAT Gateway&lt;/b&gt;" style="outlineConnect=0;fontColor=#232F3E;gradientColor=none;fillColor=#5A30B5;strokeColor=none;dashed=0;verticalLabelPosition=bottom;verticalAlign=top;align=center;html=1;fontSize=12;fontStyle=0;aspect=fixed;pointerEvents=1;shape=mxgraph.aws4.nat_gateway;" parent="1" vertex="1">
          <mxGeometry x="79.5" y="280" width="59" height="59" as="geometry" />
        </mxCell>
        <mxCell id="AJSDm180iAo4wDnun82W-28" value="&lt;b&gt;NAT Gateway&lt;/b&gt;" style="outlineConnect=0;fontColor=#232F3E;gradientColor=none;fillColor=#5A30B5;strokeColor=none;dashed=0;verticalLabelPosition=bottom;verticalAlign=top;align=center;html=1;fontSize=12;fontStyle=0;aspect=fixed;pointerEvents=1;shape=mxgraph.aws4.nat_gateway;" parent="1" vertex="1">
          <mxGeometry x="849.5" y="280" width="59" height="59" as="geometry" />
        </mxCell>
        <mxCell id="AJSDm180iAo4wDnun82W-29" value="&lt;b&gt;Public Route&lt;/b&gt;" style="outlineConnect=0;fontColor=#232F3E;gradientColor=none;fillColor=#5A30B5;strokeColor=none;dashed=0;verticalLabelPosition=bottom;verticalAlign=top;align=center;html=1;fontSize=12;fontStyle=0;aspect=fixed;pointerEvents=1;shape=mxgraph.aws4.route_table;" parent="1" vertex="1">
          <mxGeometry x="80" y="166.5" width="58.5" height="57" as="geometry" />
        </mxCell>
        <mxCell id="AJSDm180iAo4wDnun82W-30" value="&lt;b&gt;Public Route&lt;/b&gt;" style="outlineConnect=0;fontColor=#232F3E;gradientColor=none;fillColor=#5A30B5;strokeColor=none;dashed=0;verticalLabelPosition=bottom;verticalAlign=top;align=center;html=1;fontSize=12;fontStyle=0;aspect=fixed;pointerEvents=1;shape=mxgraph.aws4.route_table;" parent="1" vertex="1">
          <mxGeometry x="840" y="166.5" width="58.5" height="57" as="geometry" />
        </mxCell>
        <mxCell id="AJSDm180iAo4wDnun82W-31" value="&lt;b&gt;Private Route&lt;/b&gt;" style="outlineConnect=0;fontColor=#232F3E;gradientColor=none;fillColor=#5A30B5;strokeColor=none;dashed=0;verticalLabelPosition=bottom;verticalAlign=top;align=center;html=1;fontSize=12;fontStyle=0;aspect=fixed;pointerEvents=1;shape=mxgraph.aws4.route_table;" parent="1" vertex="1">
          <mxGeometry x="860" y="560" width="58.5" height="57" as="geometry" />
        </mxCell>
        <mxCell id="AJSDm180iAo4wDnun82W-32" value="&lt;b&gt;Private Route&lt;/b&gt;" style="outlineConnect=0;fontColor=#232F3E;gradientColor=none;fillColor=#5A30B5;strokeColor=none;dashed=0;verticalLabelPosition=bottom;verticalAlign=top;align=center;html=1;fontSize=12;fontStyle=0;aspect=fixed;pointerEvents=1;shape=mxgraph.aws4.route_table;" parent="1" vertex="1">
          <mxGeometry x="100" y="560" width="58.5" height="57" as="geometry" />
        </mxCell>
        <mxCell id="AJSDm180iAo4wDnun82W-25" value="Bastion Host &lt;br&gt;Security group" style="fillColor=none;strokeColor=#DD3522;verticalAlign=top;fontStyle=0;fontColor=#DD3522;dashed=0;pointerEvents=1;html=1;" parent="1" vertex="1">
          <mxGeometry x="218" y="114" width="140" height="130" as="geometry" />
        </mxCell>
        <mxCell id="AJSDm180iAo4wDnun82W-35" value="&lt;b&gt;Bastion Host&lt;/b&gt;" style="points=[[0,0,0],[0.25,0,0],[0.5,0,0],[0.75,0,0],[1,0,0],[0,1,0],[0.25,1,0],[0.5,1,0],[0.75,1,0],[1,1,0],[0,0.25,0],[0,0.5,0],[0,0.75,0],[1,0.25,0],[1,0.5,0],[1,0.75,0]];outlineConnect=0;fontColor=#232F3E;gradientColor=#F78E04;gradientDirection=north;fillColor=#D05C17;strokeColor=#ffffff;dashed=0;verticalLabelPosition=bottom;verticalAlign=top;align=center;html=1;fontSize=12;fontStyle=0;aspect=fixed;shape=mxgraph.aws4.resourceIcon;resIcon=mxgraph.aws4.compute;pointerEvents=1;" parent="1" vertex="1">
          <mxGeometry x="682" y="160" width="58" height="58" as="geometry" />
        </mxCell>
        <mxCell id="AJSDm180iAo4wDnun82W-36" value="Bastion Host &lt;br&gt;Security group" style="fillColor=none;strokeColor=#DD3522;verticalAlign=top;fontStyle=0;fontColor=#DD3522;dashed=0;pointerEvents=1;html=1;" parent="1" vertex="1">
          <mxGeometry x="640" y="114" width="140" height="130" as="geometry" />
        </mxCell>
        <mxCell id="QND-4vZ9Ax7OfqVobVI6-32" style="edgeStyle=orthogonalEdgeStyle;rounded=0;orthogonalLoop=1;jettySize=auto;html=1;entryX=1.003;entryY=0.538;entryDx=0;entryDy=0;entryPerimeter=0;fontColor=#232F3E;" edge="1" parent="1" target="QND-4vZ9Ax7OfqVobVI6-26">
          <mxGeometry relative="1" as="geometry">
            <mxPoint x="280" y="668" as="sourcePoint" />
            <Array as="points">
              <mxPoint x="291" y="668" />
            </Array>
          </mxGeometry>
        </mxCell>
        <mxCell id="AJSDm180iAo4wDnun82W-38" value="&lt;b&gt;EC2&lt;br&gt;Tech Challenge App&lt;/b&gt;" style="points=[[0,0,0],[0.25,0,0],[0.5,0,0],[0.75,0,0],[1,0,0],[0,1,0],[0.25,1,0],[0.5,1,0],[0.75,1,0],[1,1,0],[0,0.25,0],[0,0.5,0],[0,0.75,0],[1,0.25,0],[1,0.5,0],[1,0.75,0]];outlineConnect=0;fontColor=#232F3E;gradientColor=#F78E04;gradientDirection=north;fillColor=#D05C17;strokeColor=#ffffff;dashed=0;verticalLabelPosition=bottom;verticalAlign=top;align=center;html=1;fontSize=12;fontStyle=0;aspect=fixed;shape=mxgraph.aws4.resourceIcon;resIcon=mxgraph.aws4.ec2;pointerEvents=1;" parent="1" vertex="1">
          <mxGeometry x="291" y="636" width="58" height="58" as="geometry" />
        </mxCell>
        <mxCell id="AJSDm180iAo4wDnun82W-39" value="&lt;b&gt;EC2&lt;br&gt;Tech Challenge App&lt;/b&gt;" style="points=[[0,0,0],[0.25,0,0],[0.5,0,0],[0.75,0,0],[1,0,0],[0,1,0],[0.25,1,0],[0.5,1,0],[0.75,1,0],[1,1,0],[0,0.25,0],[0,0.5,0],[0,0.75,0],[1,0.25,0],[1,0.5,0],[1,0.75,0]];outlineConnect=0;fontColor=#232F3E;gradientColor=#F78E04;gradientDirection=north;fillColor=#D05C17;strokeColor=#ffffff;dashed=0;verticalLabelPosition=bottom;verticalAlign=top;align=center;html=1;fontSize=12;fontStyle=0;aspect=fixed;shape=mxgraph.aws4.resourceIcon;resIcon=mxgraph.aws4.ec2;pointerEvents=1;" parent="1" vertex="1">
          <mxGeometry x="693" y="646" width="58" height="58" as="geometry" />
        </mxCell>
        <mxCell id="AJSDm180iAo4wDnun82W-42" value="&lt;b&gt;Internet Gateway&lt;/b&gt;" style="outlineConnect=0;dashed=0;verticalLabelPosition=bottom;verticalAlign=top;align=center;html=1;shape=mxgraph.aws3.internet_gateway;fillColor=#F58534;gradientColor=none;pointerEvents=1;fontColor=#232F3E;" parent="1" vertex="1">
          <mxGeometry x="60" y="-150" width="60" height="60" as="geometry" />
        </mxCell>
        <mxCell id="QND-4vZ9Ax7OfqVobVI6-4" value="" style="edgeStyle=orthogonalEdgeStyle;rounded=0;orthogonalLoop=1;jettySize=auto;html=1;fontColor=#232F3E;" edge="1" parent="1" source="AJSDm180iAo4wDnun82W-45">
          <mxGeometry relative="1" as="geometry">
            <mxPoint x="710" y="110" as="targetPoint" />
          </mxGeometry>
        </mxCell>
        <mxCell id="QND-4vZ9Ax7OfqVobVI6-5" style="edgeStyle=orthogonalEdgeStyle;rounded=0;orthogonalLoop=1;jettySize=auto;html=1;entryX=0.509;entryY=-0.066;entryDx=0;entryDy=0;entryPerimeter=0;fontColor=#232F3E;" edge="1" parent="1" source="AJSDm180iAo4wDnun82W-45" target="AJSDm180iAo4wDnun82W-25">
          <mxGeometry relative="1" as="geometry" />
        </mxCell>
        <mxCell id="QND-4vZ9Ax7OfqVobVI6-6" style="edgeStyle=orthogonalEdgeStyle;rounded=0;orthogonalLoop=1;jettySize=auto;html=1;fontColor=#232F3E;" edge="1" parent="1" source="AJSDm180iAo4wDnun82W-45">
          <mxGeometry relative="1" as="geometry">
            <mxPoint x="505" y="288" as="targetPoint" />
          </mxGeometry>
        </mxCell>
        <mxCell id="AJSDm180iAo4wDnun82W-45" value="" style="outlineConnect=0;fontColor=#232F3E;gradientColor=none;fillColor=#232F3E;strokeColor=none;dashed=0;verticalLabelPosition=bottom;verticalAlign=top;align=center;html=1;fontSize=12;fontStyle=0;aspect=fixed;pointerEvents=1;shape=mxgraph.aws4.internet_alt2;" parent="1" vertex="1">
          <mxGeometry x="456" y="-330" width="98" height="98" as="geometry" />
        </mxCell>
        <mxCell id="AJSDm180iAo4wDnun82W-47" value="&lt;b&gt;Parameter &lt;br&gt;Store&lt;/b&gt;" style="outlineConnect=0;dashed=0;verticalLabelPosition=bottom;verticalAlign=top;align=center;html=1;shape=mxgraph.aws3.parameter_store;fillColor=#759C3E;gradientColor=none;pointerEvents=1;fontColor=#232F3E;" parent="1" vertex="1">
          <mxGeometry x="1050" y="329" width="75" height="102" as="geometry" />
        </mxCell>
        <mxCell id="AJSDm180iAo4wDnun82W-10" value="&lt;b&gt;RDS&lt;/b&gt;" style="fillColor=none;strokeColor=#5A6C86;dashed=1;verticalAlign=top;fontStyle=0;fontColor=#5A6C86;pointerEvents=1;html=1;" parent="1" vertex="1">
          <mxGeometry x="240" y="840" width="550" height="130" as="geometry" />
        </mxCell>
        <mxCell id="QND-4vZ9Ax7OfqVobVI6-8" value="&lt;b&gt;Internet&lt;/b&gt;" style="text;html=1;align=center;verticalAlign=middle;resizable=0;points=[];autosize=1;strokeColor=none;fontColor=#232F3E;" vertex="1" parent="1">
          <mxGeometry x="475" y="-360" width="60" height="20" as="geometry" />
        </mxCell>
        <mxCell id="QND-4vZ9Ax7OfqVobVI6-10" value="" style="shape=image;imageAspect=0;aspect=fixed;verticalLabelPosition=bottom;verticalAlign=top;dashed=0;pointerEvents=1;fontColor=#232F3E;fillColor=#CCFFFF;html=1;image=https://s3-ap-southeast-2.amazonaws.com/content-prod-529546285894/2020/03/tf.png;" vertex="1" parent="1">
          <mxGeometry x="378.44" y="1230" width="130.25" height="130" as="geometry" />
        </mxCell>
        <mxCell id="QND-4vZ9Ax7OfqVobVI6-16" value="" style="shape=singleArrow;whiteSpace=wrap;html=1;arrowWidth=0.4;arrowSize=0.4;flipH=1;dashed=0;pointerEvents=1;fontColor=#232F3E;fillColor=#CCFFFF;verticalAlign=top;direction=north;" vertex="1" parent="1">
          <mxGeometry x="482" y="1130" width="46" height="80" as="geometry" />
        </mxCell>
        <mxCell id="QND-4vZ9Ax7OfqVobVI6-18" value="&lt;b&gt;Client&lt;/b&gt;" style="outlineConnect=0;fontColor=#232F3E;gradientColor=none;fillColor=#232F3E;strokeColor=none;dashed=0;verticalLabelPosition=bottom;verticalAlign=top;align=center;html=1;fontSize=12;fontStyle=0;aspect=fixed;pointerEvents=1;shape=mxgraph.aws4.client;" vertex="1" parent="1">
          <mxGeometry x="533.56" y="1257" width="78" height="76" as="geometry" />
        </mxCell>
        <mxCell id="AJSDm180iAo4wDnun82W-11" value="&lt;span style=&quot;white-space: pre&quot;&gt;	&lt;/span&gt;&lt;span style=&quot;white-space: pre&quot;&gt;	&lt;/span&gt;&lt;span style=&quot;white-space: pre&quot;&gt;	&lt;/span&gt;&lt;span style=&quot;white-space: pre&quot;&gt;	&lt;/span&gt;&lt;span style=&quot;white-space: pre&quot;&gt;	&lt;/span&gt;&lt;span style=&quot;white-space: pre&quot;&gt;	&lt;/span&gt;&lt;span style=&quot;white-space: pre&quot;&gt;	&lt;/span&gt;&lt;span style=&quot;white-space: pre&quot;&gt;	&lt;/span&gt;&lt;span style=&quot;white-space: pre&quot;&gt;	&lt;/span&gt;&lt;span style=&quot;white-space: pre&quot;&gt;	&lt;/span&gt;&lt;span style=&quot;white-space: pre&quot;&gt;	&lt;/span&gt;&lt;span style=&quot;white-space: pre&quot;&gt;	&lt;/span&gt;&lt;span style=&quot;white-space: pre&quot;&gt;	&lt;/span&gt;&lt;span style=&quot;white-space: pre&quot;&gt;	&lt;/span&gt;&lt;span style=&quot;white-space: pre&quot;&gt;	&lt;/span&gt;&lt;span style=&quot;white-space: pre&quot;&gt;	&lt;/span&gt;&lt;span style=&quot;white-space: pre&quot;&gt;	&lt;/span&gt;RDS Security group" style="fillColor=none;strokeColor=#DD3522;verticalAlign=top;fontStyle=0;fontColor=#DD3522;dashed=0;pointerEvents=1;html=1;" parent="1" vertex="1">
          <mxGeometry x="210" y="810" width="610" height="190" as="geometry" />
        </mxCell>
        <mxCell id="QND-4vZ9Ax7OfqVobVI6-24" value="" style="endArrow=classic;html=1;fontColor=#232F3E;" edge="1" parent="1">
          <mxGeometry width="50" height="50" relative="1" as="geometry">
            <mxPoint x="500" y="441" as="sourcePoint" />
            <mxPoint x="500" y="590" as="targetPoint" />
          </mxGeometry>
        </mxCell>
        <mxCell id="QND-4vZ9Ax7OfqVobVI6-25" value="" style="endArrow=classic;html=1;fontColor=#232F3E;" edge="1" parent="1">
          <mxGeometry width="50" height="50" relative="1" as="geometry">
            <mxPoint x="500" y="740" as="sourcePoint" />
            <mxPoint x="500" y="810" as="targetPoint" />
            <Array as="points">
              <mxPoint x="500" y="770" />
            </Array>
          </mxGeometry>
        </mxCell>
        <mxCell id="QND-4vZ9Ax7OfqVobVI6-26" value="" style="shape=image;html=1;verticalAlign=top;verticalLabelPosition=bottom;labelBackgroundColor=#ffffff;imageAspect=0;aspect=fixed;image=https://cdn1.iconfinder.com/data/icons/logotypes/32/github-128.png;dashed=0;pointerEvents=1;fontColor=#232F3E;fillColor=#CCFFFF;" vertex="1" parent="1">
          <mxGeometry x="-210" y="628.5" width="73" height="73" as="geometry" />
        </mxCell>
        <mxCell id="QND-4vZ9Ax7OfqVobVI6-27" value="&lt;b&gt;GitHub Repo&lt;/b&gt;" style="text;html=1;align=center;verticalAlign=middle;resizable=0;points=[];autosize=1;strokeColor=none;fontColor=#232F3E;" vertex="1" parent="1">
          <mxGeometry x="-227" y="717" width="90" height="20" as="geometry" />
        </mxCell>
        <mxCell id="AJSDm180iAo4wDnun82W-15" value="&lt;span style=&quot;white-space: pre&quot;&gt;	&lt;/span&gt;&lt;span style=&quot;white-space: pre&quot;&gt;	&lt;/span&gt;&lt;span style=&quot;white-space: pre&quot;&gt;	&lt;/span&gt;&lt;span style=&quot;white-space: pre&quot;&gt;	&lt;/span&gt;&lt;span style=&quot;white-space: pre&quot;&gt;	&lt;/span&gt;&lt;span style=&quot;white-space: pre&quot;&gt;	&lt;/span&gt;&lt;span style=&quot;white-space: pre&quot;&gt;	&lt;/span&gt;&lt;span style=&quot;white-space: pre&quot;&gt;	&lt;/span&gt;&lt;span style=&quot;white-space: pre&quot;&gt;	&lt;/span&gt;&lt;span style=&quot;white-space: pre&quot;&gt;	&lt;/span&gt;&lt;span style=&quot;white-space: pre&quot;&gt;	&lt;/span&gt;&lt;span style=&quot;white-space: pre&quot;&gt;	&lt;/span&gt;&lt;span style=&quot;white-space: pre&quot;&gt;	&lt;/span&gt;&lt;span style=&quot;white-space: pre&quot;&gt;	&lt;/span&gt;&lt;span style=&quot;white-space: pre&quot;&gt;	&lt;/span&gt;&lt;span style=&quot;white-space: pre&quot;&gt;	&lt;/span&gt;&lt;span style=&quot;white-space: pre&quot;&gt;	&lt;/span&gt;ASG Security group" style="fillColor=none;strokeColor=#DD3522;verticalAlign=top;fontStyle=0;fontColor=#DD3522;dashed=0;pointerEvents=1;html=1;" parent="1" vertex="1">
          <mxGeometry x="211" y="560" width="610" height="210" as="geometry" />
        </mxCell>
      </root>
    </mxGraphModel>
  </diagram>
</mxfile>
